<svg 
 xmlns="http://www.w3.org/2000/svg"
 xmlns:xlink="http://www.w3.org/1999/xlink"
 width="14px" height="14px">
<path fill-rule="evenodd"  fill="rgb(80, 80, 80)"
 d="M12.827,2.468 L7.785,0.216 C7.286,-0.010 6.715,-0.010 6.221,0.214 L1.174,2.468 C0.450,2.793 -0.005,3.543 0.043,4.333 C0.063,4.694 0.139,5.140 0.265,5.657 C0.832,7.977 3.148,13.997 7.001,13.997 C10.424,13.997 12.949,8.881 13.735,5.658 C13.862,5.140 13.938,4.694 13.959,4.335 C14.006,3.543 13.552,2.793 12.827,2.468 ZM9.692,6.730 L7.703,8.723 C7.509,8.917 7.255,9.015 7.000,9.015 C6.746,9.015 6.491,8.917 6.297,8.723 L4.308,6.730 C3.919,6.341 3.919,5.710 4.308,5.321 C4.696,4.932 5.326,4.932 5.714,5.321 L7.000,6.609 L8.286,5.321 C8.675,4.932 9.304,4.932 9.692,5.321 C10.081,5.710 10.081,6.341 9.692,6.730 Z"/>
</svg>