<svg 
 xmlns="http://www.w3.org/2000/svg"
 xmlns:xlink="http://www.w3.org/1999/xlink"
 width="14px" height="14px">
<path fill-rule="evenodd"  fill="rgb(80, 80, 80)"
 d="M13.000,13.999 L1.000,13.999 C0.448,13.999 0.000,13.551 0.000,12.999 L0.000,10.117 C0.000,10.040 0.018,9.963 0.053,9.894 L1.000,7.999 L1.000,8.999 C1.000,9.552 1.448,9.999 2.000,9.999 L12.000,9.999 C12.552,9.999 13.000,9.552 13.000,8.999 L13.000,7.999 L13.947,9.894 C13.982,9.963 14.000,10.040 14.000,10.117 L14.000,12.999 C14.000,13.551 13.552,13.999 13.000,13.999 ZM2.000,0.833 C2.000,0.373 2.373,-0.000 2.833,-0.000 L11.167,-0.000 C11.626,-0.000 12.000,0.373 12.000,0.833 L12.000,7.999 L2.000,7.999 L2.000,0.833 ZM5.000,3.999 L9.000,3.999 C9.552,3.999 10.000,3.551 10.000,2.999 C10.000,2.447 9.552,2.000 9.000,2.000 L5.000,2.000 C4.448,2.000 4.000,2.447 4.000,2.999 C4.000,3.551 4.448,3.999 5.000,3.999 Z"/>
</svg>