<svg 
 xmlns="http://www.w3.org/2000/svg"
 xmlns:xlink="http://www.w3.org/1999/xlink"
 width="14px" height="14px">
<path fill-rule="evenodd"  fill="rgb(80, 80, 80)"
 d="M13.772,5.261 L12.999,6.029 L13.000,6.030 L12.207,6.819 L7.207,1.843 L8.000,1.053 L8.001,1.054 L8.773,0.285 C9.076,-0.017 9.567,-0.017 9.871,0.284 L13.772,4.165 C13.918,4.310 14.000,4.508 14.000,4.713 C14.000,4.919 13.918,5.115 13.772,5.261 ZM10.439,8.578 L9.000,10.011 L8.984,10.016 L5.208,13.767 C5.063,13.911 4.866,13.992 4.660,13.992 L0.778,13.992 C0.348,13.992 0.000,13.646 0.000,13.218 L0.000,9.347 C0.000,9.142 0.082,8.946 0.227,8.800 L2.009,7.025 L5.441,3.604 C5.636,3.409 5.953,3.409 6.148,3.604 L10.439,7.875 C10.635,8.069 10.635,8.384 10.439,8.578 Z"/>
</svg>