<svg 
 xmlns="http://www.w3.org/2000/svg"
 xmlns:xlink="http://www.w3.org/1999/xlink"
 width="14px" height="14px">
<path fill-rule="evenodd"  fill="rgb(80, 80, 80)"
 d="M12.000,14.000 L11.000,14.000 L3.000,14.000 L2.000,14.000 C0.895,14.000 -0.000,13.104 -0.000,12.000 L-0.000,8.500 C-0.000,8.224 0.224,8.000 0.500,8.000 L13.500,8.000 C13.776,8.000 14.000,8.224 14.000,8.500 L14.000,12.000 C14.000,13.104 13.104,14.000 12.000,14.000 ZM13.500,6.000 L0.500,6.000 C0.224,6.000 -0.000,5.776 -0.000,5.500 L-0.000,4.000 C-0.000,2.895 0.895,2.000 2.000,2.000 L3.000,2.000 L3.000,1.000 C3.000,0.448 3.448,-0.000 4.000,-0.000 C4.552,-0.000 5.000,0.448 5.000,1.000 L5.000,2.000 L9.000,2.000 L9.000,1.000 C9.000,0.448 9.448,-0.000 10.000,-0.000 C10.552,-0.000 11.000,0.448 11.000,1.000 L11.000,2.000 L12.000,2.000 C13.104,2.000 14.000,2.895 14.000,4.000 L14.000,5.500 C14.000,5.776 13.776,6.000 13.500,6.000 Z"/>
</svg>