<svg 
 xmlns="http://www.w3.org/2000/svg"
 xmlns:xlink="http://www.w3.org/1999/xlink"
 width="14px" height="14px">
<path fill-rule="evenodd"  fill="rgb(44, 44, 44)"
 d="M13.000,14.000 L1.000,14.000 C0.447,14.000 -0.000,13.553 -0.000,13.000 L-0.000,9.000 C-0.000,8.447 0.447,8.000 1.000,8.000 C1.553,8.000 2.000,8.447 2.000,9.000 L2.000,12.000 L12.000,12.000 L12.000,9.000 C12.000,8.447 12.447,8.000 13.000,8.000 C13.553,8.000 14.000,8.447 14.000,9.000 L14.000,13.000 C14.000,13.553 13.553,14.000 13.000,14.000 ZM7.707,9.707 C7.615,9.799 7.505,9.872 7.382,9.923 C7.260,9.973 7.130,10.000 7.000,10.000 C6.870,10.000 6.740,9.973 6.618,9.923 C6.495,9.872 6.385,9.799 6.293,9.707 L4.293,7.707 C4.007,7.421 3.921,6.991 4.076,6.617 C4.230,6.243 4.596,6.000 5.000,6.000 L6.000,6.000 L6.000,1.000 C6.000,0.448 6.448,-0.000 7.000,-0.000 C7.552,-0.000 8.000,0.448 8.000,1.000 L8.000,6.000 L9.000,6.000 C9.404,6.000 9.769,6.243 9.924,6.617 C10.079,6.991 9.993,7.421 9.707,7.707 L7.707,9.707 Z"/>
</svg>