<svg 
 xmlns="http://www.w3.org/2000/svg"
 xmlns:xlink="http://www.w3.org/1999/xlink"
 width="14px" height="14px">
<path fill-rule="evenodd"  fill="rgb(255, 255, 255)"
 d="M13.923,7.382 C13.872,7.505 13.799,7.615 13.707,7.707 L11.707,9.707 C11.421,9.993 10.991,10.079 10.617,9.924 C10.243,9.769 10.000,9.404 10.000,9.000 L10.000,8.000 L5.000,8.000 C4.448,8.000 4.000,7.552 4.000,6.999 C4.000,6.447 4.448,6.000 5.000,6.000 L10.000,6.000 L10.000,5.000 C10.000,4.595 10.243,4.230 10.617,4.076 C10.991,3.921 11.421,4.007 11.707,4.293 L13.707,6.292 C13.799,6.385 13.872,6.495 13.923,6.618 C13.973,6.740 14.000,6.869 14.000,6.999 C14.000,7.130 13.973,7.259 13.923,7.382 ZM7.000,2.000 L5.000,2.000 C3.346,2.000 2.000,3.345 2.000,5.000 L2.000,8.999 C2.000,10.654 3.346,11.999 5.000,11.999 L7.000,11.999 C7.553,11.999 8.000,12.447 8.000,12.999 C8.000,13.552 7.553,13.999 7.000,13.999 L5.000,13.999 C2.243,13.999 0.000,11.756 0.000,8.999 L0.000,5.000 C0.000,2.243 2.243,-0.001 5.000,-0.001 L7.000,-0.001 C7.553,-0.001 8.000,0.447 8.000,1.000 C8.000,1.552 7.553,2.000 7.000,2.000 Z"/>
</svg>