<svg 
 xmlns="http://www.w3.org/2000/svg"
 xmlns:xlink="http://www.w3.org/1999/xlink"
 width="14px" height="14px">
<path fill-rule="evenodd"  fill="rgb(80, 80, 80)"
 d="M12.000,5.999 L11.278,1.671 C11.118,0.706 10.283,-0.001 9.306,-0.001 L4.694,-0.001 C3.717,-0.001 2.882,0.706 2.721,1.671 L2.000,5.999 C0.895,5.999 0.000,6.895 0.000,8.000 L0.000,9.999 C0.000,11.104 0.895,11.999 2.000,11.999 L2.000,13.000 C2.000,13.552 2.448,13.999 3.000,13.999 L5.000,13.999 C5.552,13.999 6.000,13.552 6.000,13.000 L6.000,11.999 L8.000,11.999 L8.000,13.000 C8.000,13.552 8.448,13.999 9.000,13.999 L11.000,13.999 C11.552,13.999 12.000,13.552 12.000,13.000 L12.000,11.999 C13.104,11.999 14.000,11.104 14.000,9.999 L14.000,8.000 C14.000,6.895 13.104,5.999 12.000,5.999 ZM3.000,9.999 C2.448,9.999 2.000,9.552 2.000,8.999 C2.000,8.447 2.448,8.000 3.000,8.000 C3.552,8.000 4.000,8.447 4.000,8.999 C4.000,9.552 3.552,9.999 3.000,9.999 ZM4.000,5.999 L4.433,3.114 C4.529,2.470 5.030,2.000 5.617,2.000 L8.383,2.000 C8.970,2.000 9.471,2.470 9.567,3.114 L10.000,5.999 L4.000,5.999 ZM11.000,9.999 C10.448,9.999 10.000,9.552 10.000,8.999 C10.000,8.447 10.448,8.000 11.000,8.000 C11.552,8.000 12.000,8.447 12.000,8.999 C12.000,9.552 11.552,9.999 11.000,9.999 Z"/>
</svg>