<svg 
 xmlns="http://www.w3.org/2000/svg"
 xmlns:xlink="http://www.w3.org/1999/xlink"
 width="12px" height="14px">
<path fill-rule="evenodd"  fill="rgb(80, 80, 80)"
 d="M11.139,0.684 L10.356,1.462 C10.160,1.658 9.840,1.658 9.644,1.462 L8.356,0.183 C8.160,-0.012 7.840,-0.012 7.643,0.183 L6.356,1.462 C6.160,1.658 5.840,1.658 5.644,1.462 L4.356,0.183 C4.160,-0.012 3.840,-0.012 3.644,0.183 L2.356,1.462 C2.160,1.658 1.840,1.658 1.644,1.462 L0.861,0.684 C0.543,0.369 -0.000,0.593 -0.000,1.039 L-0.000,2.024 L-0.000,3.303 L-0.000,4.012 L-0.000,9.975 L-0.000,10.684 L-0.000,11.963 L-0.000,12.948 C-0.000,13.395 0.543,13.619 0.861,13.303 L1.644,12.525 C1.840,12.329 2.160,12.329 2.356,12.525 L3.644,13.804 C3.840,14.000 4.160,14.000 4.356,13.804 L5.644,12.525 C5.840,12.329 6.160,12.329 6.356,12.525 L7.643,13.804 C7.840,14.000 8.160,14.000 8.356,13.804 L9.644,12.525 C9.840,12.329 10.160,12.329 10.356,12.525 L11.139,13.303 C11.456,13.619 12.000,13.395 12.000,12.948 L12.000,11.963 L12.000,10.684 L12.000,9.975 L12.000,4.012 L12.000,3.303 L12.000,2.024 L12.000,1.039 C12.000,0.593 11.456,0.369 11.139,0.684 ZM4.000,3.019 C4.552,3.019 5.000,3.464 5.000,4.012 C5.000,4.561 4.552,5.006 4.000,5.006 C3.448,5.006 3.000,4.561 3.000,4.012 C3.000,3.464 3.448,3.019 4.000,3.019 ZM8.000,10.970 C7.448,10.970 7.000,10.525 7.000,9.976 C7.000,9.427 7.448,8.982 8.000,8.982 C8.552,8.982 9.000,9.427 9.000,9.976 C9.000,10.525 8.552,10.970 8.000,10.970 ZM9.555,5.833 L3.555,9.809 C3.384,9.921 3.191,9.976 3.001,9.976 C2.678,9.976 2.360,9.820 2.168,9.533 C1.861,9.076 1.985,8.459 2.445,8.155 L8.445,4.179 C8.905,3.875 9.526,3.998 9.832,4.455 C10.139,4.912 10.015,5.528 9.555,5.833 Z"/>
</svg>