<svg 
 xmlns="http://www.w3.org/2000/svg"
 xmlns:xlink="http://www.w3.org/1999/xlink"
 width="13px" height="14px">
<path fill-rule="evenodd"  fill="rgb(80, 80, 80)"
 d="M7.210,0.330 C7.210,0.330 7.210,0.330 7.210,0.330 C7.123,0.251 7.029,0.173 6.929,0.111 C6.837,0.054 6.739,0.013 6.632,0.002 L6.632,-0.001 L6.625,-0.001 L6.345,-0.001 L6.337,-0.001 L6.337,0.002 C6.230,0.013 6.132,0.054 6.040,0.111 C5.940,0.173 5.846,0.251 5.759,0.330 C5.759,0.330 5.759,0.330 5.759,0.330 C3.376,2.490 0.005,5.603 0.395,9.117 C0.557,10.580 1.433,11.924 2.637,12.800 C2.641,12.804 2.646,12.806 2.651,12.809 C2.896,12.986 3.153,13.144 3.422,13.280 C3.586,13.364 3.759,13.426 3.930,13.495 C4.042,13.540 4.149,13.595 4.264,13.634 C4.484,13.708 4.711,13.761 4.938,13.811 C5.009,13.827 5.077,13.851 5.149,13.864 C5.378,13.908 5.609,13.929 5.841,13.949 C5.908,13.954 5.973,13.969 6.040,13.973 L6.040,13.999 L6.171,13.999 L6.372,13.999 L6.597,13.999 L6.798,13.999 L6.929,13.999 L6.929,13.973 C6.996,13.969 7.061,13.954 7.128,13.949 C7.360,13.929 7.591,13.908 7.820,13.864 C7.891,13.851 7.960,13.827 8.031,13.811 C8.258,13.761 8.485,13.708 8.705,13.634 C8.820,13.595 8.927,13.540 9.039,13.495 C9.210,13.426 9.383,13.364 9.547,13.280 C9.816,13.144 10.073,12.986 10.318,12.809 C10.322,12.806 10.328,12.804 10.332,12.800 C11.536,11.924 12.412,10.580 12.574,9.117 C12.964,5.603 9.593,2.490 7.210,0.330 ZM6.485,11.999 C5.921,11.999 5.464,11.552 5.464,10.999 C5.464,10.447 5.921,9.999 6.485,9.999 C7.139,9.999 8.525,9.053 8.525,7.999 C8.525,7.447 8.981,6.999 9.545,6.999 C10.109,6.999 10.565,7.447 10.565,7.999 C10.565,10.320 8.127,11.999 6.485,11.999 Z"/>
</svg>