<svg 
 xmlns="http://www.w3.org/2000/svg"
 xmlns:xlink="http://www.w3.org/1999/xlink"
 width="14px" height="10px">
<path fill-rule="evenodd"  fill="rgb(80, 80, 80)"
 d="M12.000,-0.000 L2.000,-0.000 C0.895,-0.000 0.000,0.895 0.000,1.999 L0.000,7.999 C0.000,9.104 0.895,9.999 2.000,9.999 L12.000,9.999 C13.104,9.999 14.000,9.104 14.000,7.999 L14.000,1.999 C14.000,0.895 13.104,-0.000 12.000,-0.000 ZM4.000,7.000 C4.000,7.552 3.552,7.999 3.000,7.999 C2.448,7.999 2.000,7.552 2.000,7.000 L2.000,2.999 C2.000,2.447 2.448,1.999 3.000,1.999 C3.552,1.999 4.000,2.447 4.000,2.999 L4.000,7.000 ZM8.000,7.000 C8.000,7.552 7.552,7.999 7.000,7.999 C6.448,7.999 6.000,7.552 6.000,7.000 L6.000,2.999 C6.000,2.447 6.448,1.999 7.000,1.999 C7.552,1.999 8.000,2.447 8.000,2.999 L8.000,7.000 ZM12.000,7.000 C12.000,7.552 11.552,7.999 11.000,7.999 C10.448,7.999 10.000,7.552 10.000,7.000 L10.000,2.999 C10.000,2.447 10.448,1.999 11.000,1.999 C11.552,1.999 12.000,2.447 12.000,2.999 L12.000,7.000 Z"/>
</svg>