<svg 
 xmlns="http://www.w3.org/2000/svg"
 xmlns:xlink="http://www.w3.org/1999/xlink"
 width="14px" height="14px">
<path fill-rule="evenodd"  fill="rgb(217, 21, 30)"
 d="M13.000,5.991 C13.552,5.991 14.000,6.439 14.000,6.991 C14.000,7.543 13.552,7.991 13.000,7.991 L12.000,7.991 L12.000,9.991 L13.000,9.991 C13.552,9.991 14.000,10.439 14.000,10.991 C14.000,11.543 13.552,11.991 13.000,11.991 L12.000,11.991 L12.000,11.999 C12.000,13.104 11.104,14.000 10.000,14.000 L2.000,14.000 C0.895,14.000 0.000,13.104 0.000,11.999 L0.000,1.999 C0.000,0.895 0.895,-0.000 2.000,-0.000 L10.000,-0.000 C11.102,-0.000 11.994,0.890 11.999,1.991 L13.000,1.991 C13.552,1.991 14.000,2.439 14.000,2.991 C14.000,3.543 13.552,3.991 13.000,3.991 L12.000,3.991 L12.000,5.991 L13.000,5.991 ZM9.894,9.552 L6.894,3.552 C6.555,2.874 5.445,2.874 5.105,3.552 L2.105,9.552 C1.858,10.046 2.059,10.647 2.553,10.894 C3.047,11.139 3.647,10.941 3.894,10.447 L4.118,10.000 L7.882,10.000 L8.105,10.447 C8.281,10.797 8.634,10.999 9.001,10.999 C9.151,10.999 9.304,10.965 9.447,10.894 C9.941,10.647 10.142,10.046 9.894,9.552 ZM6.000,6.236 L6.882,7.999 L5.118,7.999 L6.000,6.236 Z"/>
</svg>