<svg 
 xmlns="http://www.w3.org/2000/svg"
 xmlns:xlink="http://www.w3.org/1999/xlink"
 width="12px" height="14px">
<path fill-rule="evenodd"  fill="rgb(80, 80, 80)"
 d="M10.000,1.999 L10.000,0.999 C10.000,0.447 9.552,-0.001 9.000,-0.001 C8.448,-0.001 8.000,0.447 8.000,0.999 L8.000,1.999 L4.000,1.999 L4.000,0.999 C4.000,0.447 3.552,-0.001 3.000,-0.001 C2.448,-0.001 2.000,0.447 2.000,0.999 L2.000,1.999 C0.895,1.999 -0.000,2.895 -0.000,3.999 L-0.000,12.000 C-0.000,13.104 0.895,13.999 2.000,13.999 L10.000,13.999 C11.104,13.999 12.000,13.104 12.000,12.000 L12.000,3.999 C12.000,2.895 11.104,1.999 10.000,1.999 ZM9.000,10.999 L3.000,10.999 C2.448,10.999 2.000,10.552 2.000,9.999 C2.000,9.447 2.448,8.999 3.000,8.999 L9.000,8.999 C9.552,8.999 10.000,9.447 10.000,9.999 C10.000,10.552 9.552,10.999 9.000,10.999 ZM9.000,6.999 L3.000,6.999 C2.448,6.999 2.000,6.552 2.000,5.999 C2.000,5.447 2.448,4.999 3.000,4.999 L9.000,4.999 C9.552,4.999 10.000,5.447 10.000,5.999 C10.000,6.552 9.552,6.999 9.000,6.999 Z"/>
</svg>