<svg 
 xmlns="http://www.w3.org/2000/svg"
 xmlns:xlink="http://www.w3.org/1999/xlink"
 width="12px" height="14px">
<path fill-rule="evenodd"  fill="rgb(80, 80, 80)"
 d="M10.000,14.000 L2.000,14.000 C0.895,14.000 -0.000,13.104 -0.000,12.000 L-0.000,2.000 C-0.000,0.895 0.895,-0.000 2.000,-0.000 L5.000,-0.000 L5.500,-0.000 C5.776,-0.000 6.000,0.225 6.000,0.500 L6.000,1.000 L6.000,5.000 C6.000,5.552 6.448,6.000 7.000,6.000 L11.000,6.000 L11.500,6.000 C11.776,6.000 12.000,6.224 12.000,6.500 L12.000,7.000 L12.000,12.000 C12.000,13.104 11.104,14.000 10.000,14.000 ZM9.000,10.000 L3.000,10.000 C2.447,10.000 2.000,10.447 2.000,11.000 C2.000,11.553 2.447,12.000 3.000,12.000 L9.000,12.000 C9.553,12.000 10.000,11.553 10.000,11.000 C10.000,10.447 9.553,10.000 9.000,10.000 ZM8.500,4.000 C8.225,4.000 8.000,3.776 8.000,3.500 L8.000,3.000 L8.000,-0.000 L12.000,4.000 L9.000,4.000 L8.500,4.000 Z"/>
</svg>