<svg 
 xmlns="http://www.w3.org/2000/svg"
 xmlns:xlink="http://www.w3.org/1999/xlink"
 width="12px" height="14px">
<path fill-rule="evenodd"  fill="rgb(80, 80, 80)"
 d="M11.139,0.676 L10.356,1.454 C10.160,1.650 9.840,1.650 9.644,1.454 L8.356,0.175 C8.160,-0.021 7.840,-0.021 7.643,0.175 L6.356,1.454 C6.160,1.650 5.840,1.650 5.644,1.454 L4.356,0.175 C4.160,-0.021 3.840,-0.021 3.644,0.175 L2.356,1.454 C2.160,1.650 1.840,1.650 1.644,1.454 L0.861,0.676 C0.543,0.360 -0.000,0.584 -0.000,1.030 L-0.000,2.016 L-0.000,3.295 L-0.000,4.004 L-0.000,9.967 L-0.000,10.676 L-0.000,11.955 L-0.000,12.940 C-0.000,13.387 0.543,13.610 0.861,13.294 L1.644,12.516 C1.840,12.321 2.160,12.321 2.356,12.516 L3.644,13.796 C3.840,13.991 4.160,13.991 4.356,13.796 L5.644,12.516 C5.840,12.321 6.160,12.321 6.356,12.516 L7.643,13.796 C7.840,13.991 8.160,13.991 8.356,13.796 L9.644,12.516 C9.840,12.321 10.160,12.321 10.356,12.516 L11.139,13.294 C11.456,13.610 12.000,13.387 12.000,12.940 L12.000,11.955 L12.000,10.676 L12.000,9.967 L12.000,4.004 L12.000,3.295 L12.000,2.016 L12.000,1.030 C12.000,0.584 11.456,0.360 11.139,0.676 ZM9.970,5.239 L8.970,9.214 C8.868,9.618 8.525,9.916 8.109,9.961 C8.072,9.965 8.036,9.967 8.000,9.967 C7.624,9.967 7.276,9.756 7.105,9.418 L6.000,7.221 L4.894,9.418 C4.707,9.789 4.314,10.010 3.891,9.961 C3.475,9.916 3.132,9.618 3.030,9.214 L2.030,5.239 C1.895,4.707 2.222,4.167 2.758,4.034 C3.292,3.897 3.836,4.223 3.970,4.757 L4.314,6.126 L5.105,4.553 C5.445,3.880 6.555,3.880 6.894,4.553 L7.685,6.126 L8.030,4.757 C8.163,4.223 8.703,3.896 9.242,4.034 C9.778,4.167 10.104,4.707 9.970,5.239 Z"/>
</svg>