<svg 
 xmlns="http://www.w3.org/2000/svg"
 xmlns:xlink="http://www.w3.org/1999/xlink"
 width="14px" height="14px">
<path fill-rule="evenodd"  fill="rgb(255, 255, 255)"
 d="M13.002,7.999 L11.005,7.999 L7.013,7.999 L3.432,7.999 L3.724,8.292 C4.114,8.683 4.114,9.316 3.724,9.706 C3.529,9.902 3.274,9.999 3.018,9.999 C2.762,9.999 2.507,9.902 2.312,9.706 L0.316,7.708 C0.223,7.615 0.150,7.505 0.099,7.381 C-0.002,7.137 -0.002,6.862 0.099,6.618 C0.150,6.494 0.223,6.383 0.316,6.291 L2.312,4.292 C2.702,3.902 3.334,3.902 3.724,4.292 C4.114,4.683 4.114,5.316 3.724,5.706 L3.432,6.000 L7.013,6.000 L11.005,6.000 L13.002,6.000 C13.554,6.000 14.001,6.447 14.001,6.999 C14.001,7.552 13.554,7.999 13.002,7.999 ZM13.002,2.000 L1.018,2.000 C0.466,2.000 0.019,1.552 0.019,0.999 C0.019,0.447 0.466,-0.001 1.018,-0.001 L13.002,-0.001 C13.554,-0.001 14.001,0.447 14.001,0.999 C14.001,1.552 13.554,2.000 13.002,2.000 ZM1.018,11.999 L13.002,11.999 C13.554,11.999 14.001,12.447 14.001,12.999 C14.001,13.552 13.554,13.999 13.002,13.999 L1.018,13.999 C0.466,13.999 0.019,13.552 0.019,12.999 C0.019,12.447 0.466,11.999 1.018,11.999 Z"/>
</svg>