<svg 
 xmlns="http://www.w3.org/2000/svg"
 xmlns:xlink="http://www.w3.org/1999/xlink"
 width="14px" height="14px">
<path fill-rule="evenodd"  fill="rgb(44, 44, 44)"
 d="M13.500,12.000 L12.500,12.000 C12.224,12.000 12.000,11.776 12.000,11.500 L12.000,6.500 C12.000,6.224 11.776,6.000 11.500,6.000 L2.500,6.000 C2.224,6.000 2.000,6.224 2.000,6.500 L2.000,11.500 C2.000,11.776 1.776,12.000 1.500,12.000 L0.500,12.000 C0.224,12.000 -0.000,11.776 -0.000,11.500 L-0.000,6.000 L-0.000,3.000 C-0.000,2.448 0.448,2.000 1.000,2.000 L2.000,2.000 L2.000,1.000 C2.000,0.448 2.448,-0.000 3.000,-0.000 L11.000,-0.000 C11.552,-0.000 12.000,0.448 12.000,1.000 L12.000,2.000 L13.000,2.000 C13.552,2.000 14.000,2.448 14.000,3.000 L14.000,6.000 L14.000,11.500 C14.000,11.776 13.776,12.000 13.500,12.000 ZM5.000,8.000 L9.000,8.000 C9.552,8.000 10.000,8.448 10.000,9.000 L10.000,13.000 C10.000,13.552 9.552,14.000 9.000,14.000 L5.000,14.000 C4.448,14.000 4.000,13.552 4.000,13.000 L4.000,9.000 C4.000,8.448 4.448,8.000 5.000,8.000 Z"/>
</svg>