<svg 
 xmlns="http://www.w3.org/2000/svg"
 xmlns:xlink="http://www.w3.org/1999/xlink"
 width="15px" height="14px">
<path fill-rule="evenodd"  fill="rgb(80, 80, 80)"
 d="M14.590,12.293 L11.785,9.471 C12.480,8.490 12.893,7.294 12.893,6.000 C12.893,2.691 10.218,-0.000 6.930,-0.000 C3.641,-0.000 0.966,2.691 0.966,6.000 C0.966,9.308 3.641,12.000 6.930,12.000 C8.216,12.000 9.405,11.584 10.380,10.885 L13.185,13.707 C13.379,13.902 13.633,14.000 13.887,14.000 C14.142,14.000 14.396,13.902 14.590,13.707 C14.978,13.316 14.978,12.683 14.590,12.293 ZM6.930,10.000 C4.737,10.000 2.954,8.206 2.954,6.000 C2.954,3.794 4.737,2.000 6.930,2.000 C9.122,2.000 10.905,3.794 10.905,6.000 C10.905,8.206 9.122,10.000 6.930,10.000 Z"/>
</svg>